# xmcd
#
# Track frame offsets:
#	150
#	14915
#	34204
#	53011
#	69165
#	85828
#	102670
#	120585
#	137785
#	156782
#	175148
#	191398
#	207027
#	228581
#
# Disc length: 3264 seconds
#
# Revision: 1
# Processed by: cddbd v1.5.2PL0 Copyright (c) Steve Scherf et al.
# Submitted via: CDmax 2.0
#
DISCID=bc0cbe0e
DTITLE=Mark Medlock - Mr. Lonely
DYEAR=2007
DGENRE=Blues
TTITLE0=Now Or Never
TTITLE1=You Are So Beautiful
TTITLE2=Seven Days
TTITLE3=Relax Your Heart
TTITLE4=Mr. Lonely
TTITLE5=You Can Get It
TTITLE6=Everytime You Go Away
TTITLE7=Just Like Heaven
TTITLE8=Oh Sarah
TTITLE9=I Miss You
TTITLE10=If You Just Call Me
TTITLE11=I'm Just A Dreamer
TTITLE12=Sad Sad Story
TTITLE13=Only A Fool
EXTD=
EXTT0=
EXTT1=
EXTT2=
EXTT3=
EXTT4=
EXTT5=
EXTT6=
EXTT7=
EXTT8=
EXTT9=
EXTT10=
EXTT11=
EXTT12=
EXTT13=
PLAYORDER=
